<?xml version="1.0" encoding="UTF-8" standalone="no"?>
<!-- Created with Inkscape (http://www.inkscape.org/) -->

<svg
   width="16"
   height="16"
   viewBox="0 0 4.2333469 4.233336"
   version="1.1"
   id="svg1"
   inkscape:version="1.4.3 (0d15f75, 2025-12-25)"
   sodipodi:docname="signature-a.svg"
   inkscape:export-filename="logo.png"
   inkscape:export-xdpi="96"
   inkscape:export-ydpi="96"
   xmlns:inkscape="http://www.inkscape.org/namespaces/inkscape"
   xmlns:sodipodi="http://sodipodi.sourceforge.net/DTD/sodipodi-0.dtd"
   xmlns="http://www.w3.org/2000/svg"
   xmlns:svg="http://www.w3.org/2000/svg"
   xmlns:rdf="http://www.w3.org/1999/02/22-rdf-syntax-ns#"
   xmlns:cc="http://creativecommons.org/ns#"
   xmlns:dc="http://purl.org/dc/elements/1.1/">
  <title
     id="title1">Alan Otoniel García Hernández Personal Projects Logo</title>
  <sodipodi:namedview
     id="namedview1"
     pagecolor="#505050"
     bordercolor="#eeeeee"
     borderopacity="1"
     inkscape:showpageshadow="0"
     inkscape:pageopacity="0"
     inkscape:pagecheckerboard="0"
     inkscape:deskcolor="#505050"
     inkscape:document-units="px"
     showgrid="false"
     inkscape:zoom="2.8284271"
     inkscape:cx="210.18749"
     inkscape:cy="109.42478"
     inkscape:window-width="1920"
     inkscape:window-height="1009"
     inkscape:window-x="-8"
     inkscape:window-y="-8"
     inkscape:window-maximized="1"
     inkscape:current-layer="layer1">
    <inkscape:grid
       id="grid2"
       units="px"
       originx="0"
       originy="0"
       spacingx="0.26458332"
       spacingy="0.26458332"
       empcolor="#0099e5"
       empopacity="0.30196078"
       color="#0099e5"
       opacity="0.14901961"
       empspacing="5"
       dotted="false"
       gridanglex="30"
       gridanglez="30"
       visible="false" />
  </sodipodi:namedview>
  <defs
     id="defs1" />
  <g
     inkscape:label="Layer 1"
     inkscape:groupmode="layer"
     id="layer1">
    <g
       id="g314"
       inkscape:label="Alan"
       transform="matrix(0.32846979,0,0,0.32089778,-10.097242,9.5367303)"
       style="display:inline">
      <path
         style="fill:#ffffff;stroke:none;stroke-width:0.264583;stroke-linecap:round;stroke-dasharray:none"
         id="path260"
         d="m 36.013748,-21.227203 c 0.01222,-0.201238 0.0553,-0.287671 -0.17976,-0.44405 -0.622946,-0.414438 -0.932995,-0.613229 -1.634848,-0.503307 -0.291568,0.04566 -0.578784,0.130502 -0.850794,0.244989 -0.320861,0.135047 -0.611558,0.332799 -0.917337,0.499199 -0.559364,0.451578 -1.184829,0.855103 -1.524964,1.525266 -0.485561,0.956694 0.149021,1.720487 1.205992,1.730533 0.371558,0.0035 0.700855,-0.247117 1.051283,-0.370675 0.420613,-0.251064 0.857229,-0.477077 1.261835,-0.753194 2.406542,-1.6423 4.326288,-3.871806 6.169783,-6.096735 0.775867,-0.95651 1.504755,-1.949131 2.23953,-2.937006 0.267007,-0.358982 0.563419,-0.715857 0.793864,-1.10213 -0.226447,-0.04598 -0.465096,-0.224489 -0.679337,-0.13793 -0.215003,0.08687 -0.264803,0.380754 -0.395605,0.57223 -0.205872,0.301374 -0.410157,0.60383 -0.614405,0.906309 -0.90296,1.337239 -1.801673,2.677343 -2.699674,4.017913 -0.868228,1.338353 -1.783707,2.665798 -2.476091,4.108823 -0.08652,0.180321 -0.679042,1.181364 -0.300929,1.567638 0.237173,0.24229 0.604825,0.306608 0.907238,0.459912 1.049039,-0.02533 2.067167,-0.343147 3.048938,-0.692299 0.519718,-0.18483 0.400537,-0.05687 0.567946,-0.278286 -0.261106,-0.07433 -0.512175,-0.209531 -0.78332,-0.222978 -0.217199,-0.01077 -0.423532,0.09904 -0.634275,0.152676 -0.293934,0.07481 -0.586814,0.153724 -0.879668,0.232661 -1.252081,0.337488 -2.500782,0.685205 -3.755066,1.014645 -1.066041,0.252883 -2.118104,0.563275 -3.182896,0.820894 -0.155017,0.0375 -0.309121,0.0872 -0.468201,0.09858 -0.03407,0.0024 -0.117772,-0.06156 -0.0837,-0.0591 0.255863,0.01846 0.507974,0.07203 0.76196,0.108041 2.969899,-2.121008 5.982797,-4.179529 9.037862,-6.175701 0,0 -0.03364,-0.02163 -0.03364,-0.02163 v 0 c -0.649999,0.405823 -3.247462,2.025623 -3.881436,2.429178 -1.843022,1.173177 -3.646721,2.413168 -5.546589,3.494424 0.03492,0.169824 0.06139,0.341609 0.104762,0.509473 0.0027,0.0104 0.01056,-0.02069 0.02045,-0.0249 0.128699,-0.05493 0.259467,-0.105213 0.391698,-0.150989 1.011827,-0.350274 2.053987,-0.596848 3.083349,-0.888162 1.273448,-0.333218 2.547695,-0.66584 3.830461,-0.961928 0.306787,-0.07081 0.613833,-0.141075 0.92296,-0.200861 0.227359,-0.04397 0.489124,0.01178 0.6859,-0.110298 0.08158,-0.05061 -0.03421,-0.188936 -0.05132,-0.283405 0.128336,0.232459 0.09168,0.0974 -0.414949,0.309678 -0.717765,0.300742 -1.512626,0.568363 -2.291374,0.640365 -0.261697,0.0242 -0.525603,-0.0051 -0.788403,-0.0076 -0.05457,4.23e-4 -0.135253,0.04781 -0.163709,0.0012 -0.386527,-0.632489 -0.139962,-0.916401 0.163198,-1.608458 0.642382,-1.466448 1.553134,-2.800692 2.423462,-4.13558 0.918475,-1.330471 1.835971,-2.662054 2.819832,-3.945677 0.223338,-0.291383 0.449289,-0.581049 0.686398,-0.861338 0.150678,-0.178118 0.441135,-0.282298 0.476174,-0.512951 0.0279,-0.183687 -0.220009,-0.299458 -0.330015,-0.449188 -0.0011,0.04663 0.01386,0.09648 -0.0032,0.139882 -0.09247,0.235196 -0.515906,0.921039 -0.599244,1.052116 -0.657979,1.034902 -1.382874,2.02646 -2.122332,3.003943 -0.339519,0.423892 -0.669375,0.855707 -1.018556,1.271676 -1.504522,1.79229 -3.176639,3.545349 -5.169396,4.802181 -0.422119,0.266231 -0.880023,0.470968 -1.320036,0.706452 -0.36953,0.101113 -0.737386,0.208561 -1.108591,0.303339 -0.103296,0.02637 -0.228179,0.12295 -0.314164,0.05993 -0.167531,-0.122793 -0.299905,-0.324302 -0.327424,-0.530183 -0.136692,-1.022573 1.025678,-1.755246 1.687544,-2.271783 0.313394,-0.157023 0.611807,-0.34842 0.940179,-0.471069 0.281517,-0.105148 0.578305,-0.177296 0.877269,-0.20776 0.232222,-0.02366 0.465928,0.06486 0.69868,0.04717 0.03658,-0.0028 -0.08215,-0.119077 -0.05345,-0.09622 0.269505,0.214707 0.226442,0.162351 0.229683,0.420017 z"
         inkscape:label="1" />
    </g>
  </g>
  <metadata
     id="metadata1">
    <rdf:RDF>
      <cc:Work
         rdf:about="">
        <dc:creator>
          <cc:Agent>
            <dc:title>Alan Otoniel García Hernández</dc:title>
          </cc:Agent>
        </dc:creator>
        <dc:title>Alan Otoniel García Hernández Personal Projects Logo</dc:title>
        <dc:date>18/04/2025</dc:date>
      </cc:Work>
    </rdf:RDF>
  </metadata>
</svg>
