<?xml version="1.0" encoding="UTF-8" standalone="no"?>
<!-- Created with Inkscape (http://www.inkscape.org/) -->

<svg
   width="412"
   height="27"
   viewBox="0 0 109.00866 7.1437545"
   version="1.1"
   id="svg1"
   inkscape:version="1.4.2 (ebf0e94, 2025-05-08)"
   sodipodi:docname="super-smash-bros-idea-logo.svg"
   inkscape:export-filename="logo.png"
   inkscape:export-xdpi="96"
   inkscape:export-ydpi="96"
   xmlns:inkscape="http://www.inkscape.org/namespaces/inkscape"
   xmlns:sodipodi="http://sodipodi.sourceforge.net/DTD/sodipodi-0.dtd"
   xmlns="http://www.w3.org/2000/svg"
   xmlns:svg="http://www.w3.org/2000/svg"
   xmlns:rdf="http://www.w3.org/1999/02/22-rdf-syntax-ns#"
   xmlns:cc="http://creativecommons.org/ns#"
   xmlns:dc="http://purl.org/dc/elements/1.1/">
  <title
     id="title1">Alan Otoniel García Hernández Personal Projects Logo</title>
  <sodipodi:namedview
     id="namedview1"
     pagecolor="#505050"
     bordercolor="#eeeeee"
     borderopacity="1"
     inkscape:showpageshadow="0"
     inkscape:pageopacity="0"
     inkscape:pagecheckerboard="0"
     inkscape:deskcolor="#505050"
     inkscape:document-units="px"
     showgrid="false"
     inkscape:zoom="2.8284271"
     inkscape:cx="210.18749"
     inkscape:cy="109.42477"
     inkscape:window-width="1920"
     inkscape:window-height="1009"
     inkscape:window-x="1042"
     inkscape:window-y="282"
     inkscape:window-maximized="1"
     inkscape:current-layer="layer1">
    <inkscape:grid
       id="grid2"
       units="px"
       originx="0"
       originy="0"
       spacingx="0.26458332"
       spacingy="0.26458332"
       empcolor="#0099e5"
       empopacity="0.30196078"
       color="#0099e5"
       opacity="0.14901961"
       empspacing="5"
       dotted="false"
       gridanglex="30"
       gridanglez="30"
       visible="false" />
  </sodipodi:namedview>
  <defs
     id="defs1" />
  <g
     inkscape:label="Layer 1"
     inkscape:groupmode="layer"
     id="layer1">
    <g
       id="g314"
       inkscape:label="Alan"
       transform="matrix(0.75609599,0,0,0.52253627,-21.00896,15.52922)"
       style="display:inline">
      <path
         style="fill:#ffffff;stroke:none;stroke-width:0.264583;stroke-linecap:round;stroke-dasharray:none"
         id="path261"
         d="m 46.023433,-28.937119 c -0.819349,1.807512 -1.739202,3.567973 -2.614573,5.348772 -0.177435,0.381346 -0.920351,1.949934 -1.079056,2.394227 -0.117883,0.330019 -0.353592,1.086037 -0.215908,1.504234 0.139528,0.423805 0.86782,0.460989 1.12409,0.53084 0.207,-0.04881 0.415695,-0.0909 0.620996,-0.146416 0.497015,-0.1344 0.985216,-0.299668 1.48035,-0.440837 0.63832,-0.181994 1.280488,-0.337865 1.927879,-0.483203 0.100912,-0.02154 0.531172,-0.09497 0.667427,-0.176009 0.204647,-0.121708 -0.186648,-0.31282 -0.485513,-0.392222 -0.155004,-0.04118 -0.71033,0.248499 -0.768557,0.274955 -0.545642,0.323706 -1.045295,0.727265 -1.42689,1.238979 -0.130633,0.175178 -0.371779,0.48806 -0.279808,0.755601 0.02749,0.07998 0.12499,0.113959 0.187487,0.170938 0.231756,0.05568 0.457047,0.174819 0.695272,0.16703 0.192614,-0.0063 0.794766,-0.447036 0.903899,-0.528282 0.403982,-0.300749 0.770324,-0.639742 1.185006,-0.926196 0.450932,0.0197 -0.143833,-0.133639 -0.212376,-0.09683 -0.102497,0.05505 -0.06088,0.224846 -0.10032,0.334301 -0.04756,0.131999 -0.106677,0.259542 -0.160342,0.389177 -0.04288,0.103583 -0.111575,0.199779 -0.129305,0.310477 -0.0062,0.03877 0.04247,0.06606 0.06371,0.09909 0.252138,0.02608 0.507664,0.127017 0.756413,0.07825 0.1915,-0.03754 0.325141,-0.215901 0.488701,-0.322345 0.198284,-0.129041 0.395587,-0.259687 0.596808,-0.384099 0.313293,-0.193705 0.828741,-0.507947 1.184643,-0.645396 0.137985,-0.05329 0.287041,-0.0716 0.430561,-0.107401 0.08236,0.03866 0.286274,0.03388 0.247082,0.115988 -0.06247,0.130884 -0.324618,0.05992 -0.39228,0.188203 -0.105042,0.199145 -0.03875,0.448651 -0.06177,0.672621 -0.0254,0.247035 -0.05563,0.493547 -0.08345,0.740321 0,0 0.158509,0.08519 0.158509,0.08519 v 0 c 0.07649,-0.221239 0.16138,-0.43975 0.229471,-0.663717 0.0629,-0.206889 0.200837,-0.41492 0.163184,-0.627855 -0.119742,-0.677191 -0.226684,-0.650203 -0.613082,-0.751275 -0.131064,0.04714 -0.267176,0.0821 -0.393194,0.141422 -0.620033,0.291893 -1.189784,0.697955 -1.791383,1.025205 -0.179129,0.09744 -0.426919,0.112918 -0.54395,0.279905 -0.07191,0.102608 0.06162,0.242901 0.09243,0.364351 -0.04565,-0.02311 -0.132226,-0.01838 -0.136941,-0.06932 -0.01058,-0.114276 0.245793,-0.649588 0.271203,-0.710685 0.04647,-0.11172 0.173535,-0.225192 0.131086,-0.338499 -0.194575,-0.519355 -0.296638,-0.426608 -0.539465,-0.324312 -0.376608,0.317105 -0.72939,0.669957 -1.128689,0.959065 -0.155011,0.112237 -0.314534,0.22 -0.484261,0.308421 -0.142537,0.07425 -0.327023,0.07198 -0.448321,0.177412 -0.05324,0.04628 5.29e-4,0.141085 7.94e-4,0.211628 -0.07174,-0.048 -0.175726,-0.06725 -0.215231,-0.144005 -0.137425,-0.266986 0.07653,-0.570473 0.214101,-0.761492 0.372838,-0.51769 0.893173,-0.906939 1.448957,-1.205729 0.158877,-0.05817 0.312666,-0.132789 0.476631,-0.174511 0.109939,-0.02798 0.292134,0.07047 0.338725,-0.03296 0.0425,-0.09437 -0.138901,-0.159351 -0.229857,-0.208735 -0.0222,-0.01205 1.21e-4,0.05781 -0.02,0.07308 -0.06218,0.04722 -0.137059,0.07646 -0.210785,0.10217 -0.128651,0.04487 -0.262681,0.0725 -0.394021,0.108743 -0.628007,0.168212 -1.254969,0.338921 -1.88,0.517983 -0.345252,0.09891 -1.150887,0.338821 -1.505694,0.420091 -0.212399,0.04865 -0.428667,0.07853 -0.642998,0.117797 -0.05032,0.05326 -0.08033,0.179314 -0.150942,0.15977 -0.392121,-0.108531 -0.430932,-0.611425 -0.410324,-0.912778 0.08218,-1.201711 0.807694,-2.249856 1.229871,-3.339653 0.88474,-1.771274 1.799029,-3.530963 2.838853,-5.217277 z"
         inkscape:label="2" />
      <path
         style="fill:#ffffff;stroke:none;stroke-width:0.264583;stroke-linecap:round;stroke-dasharray:none"
         id="path260"
         d="m 36.013748,-21.227203 c 0.01222,-0.201238 0.0553,-0.287671 -0.17976,-0.44405 -0.622946,-0.414438 -0.932995,-0.613229 -1.634848,-0.503307 -0.291568,0.04566 -0.578784,0.130502 -0.850794,0.244989 -0.320861,0.135047 -0.611558,0.332799 -0.917337,0.499199 -0.559364,0.451578 -1.184829,0.855103 -1.524964,1.525266 -0.485561,0.956694 0.149021,1.720487 1.205992,1.730533 0.371558,0.0035 0.700855,-0.247117 1.051283,-0.370675 0.420613,-0.251064 0.857229,-0.477077 1.261835,-0.753194 2.406542,-1.6423 4.326288,-3.871806 6.169783,-6.096735 0.775867,-0.95651 1.504755,-1.949131 2.23953,-2.937006 0.267007,-0.358982 0.563419,-0.715857 0.793864,-1.10213 -0.226447,-0.04598 -0.465096,-0.224489 -0.679337,-0.13793 -0.215003,0.08687 -0.264803,0.380754 -0.395605,0.57223 -0.205872,0.301374 -0.410157,0.60383 -0.614405,0.906309 -0.90296,1.337239 -1.801673,2.677343 -2.699674,4.017913 -0.868228,1.338353 -1.783707,2.665798 -2.476091,4.108823 -0.08652,0.180321 -0.679042,1.181364 -0.300929,1.567638 0.237173,0.24229 0.604825,0.306608 0.907238,0.459912 1.049039,-0.02533 2.067167,-0.343147 3.048938,-0.692299 0.519718,-0.18483 0.400537,-0.05687 0.567946,-0.278286 -0.261106,-0.07433 -0.512175,-0.209531 -0.78332,-0.222978 -0.217199,-0.01077 -0.423532,0.09904 -0.634275,0.152676 -0.293934,0.07481 -0.586814,0.153724 -0.879668,0.232661 -1.252081,0.337488 -2.500782,0.685205 -3.755066,1.014645 -1.066041,0.252883 -2.118104,0.563275 -3.182896,0.820894 -0.155017,0.0375 -0.309121,0.0872 -0.468201,0.09858 -0.03407,0.0024 -0.117772,-0.06156 -0.0837,-0.0591 0.255863,0.01846 0.507974,0.07203 0.76196,0.108041 2.969899,-2.121008 5.982797,-4.179529 9.037862,-6.175701 0,0 -0.03364,-0.02163 -0.03364,-0.02163 v 0 c -0.649999,0.405823 -3.247462,2.025623 -3.881436,2.429178 -1.843022,1.173177 -3.646721,2.413168 -5.546589,3.494424 0.03492,0.169824 0.06139,0.341609 0.104762,0.509473 0.0027,0.0104 0.01056,-0.02069 0.02045,-0.0249 0.128699,-0.05493 0.259467,-0.105213 0.391698,-0.150989 1.011827,-0.350274 2.053987,-0.596848 3.083349,-0.888162 1.273448,-0.333218 2.547695,-0.66584 3.830461,-0.961928 0.306787,-0.07081 0.613833,-0.141075 0.92296,-0.200861 0.227359,-0.04397 0.489124,0.01178 0.6859,-0.110298 0.08158,-0.05061 -0.03421,-0.188936 -0.05132,-0.283405 0.128336,0.232459 0.09168,0.0974 -0.414949,0.309678 -0.717765,0.300742 -1.512626,0.568363 -2.291374,0.640365 -0.261697,0.0242 -0.525603,-0.0051 -0.788403,-0.0076 -0.05457,4.23e-4 -0.135253,0.04781 -0.163709,0.0012 -0.386527,-0.632489 -0.139962,-0.916401 0.163198,-1.608458 0.642382,-1.466448 1.553134,-2.800692 2.423462,-4.13558 0.918475,-1.330471 1.835971,-2.662054 2.819832,-3.945677 0.223338,-0.291383 0.449289,-0.581049 0.686398,-0.861338 0.150678,-0.178118 0.441135,-0.282298 0.476174,-0.512951 0.0279,-0.183687 -0.220009,-0.299458 -0.330015,-0.449188 -0.0011,0.04663 0.01386,0.09648 -0.0032,0.139882 -0.09247,0.235196 -0.515906,0.921039 -0.599244,1.052116 -0.657979,1.034902 -1.382874,2.02646 -2.122332,3.003943 -0.339519,0.423892 -0.669375,0.855707 -1.018556,1.271676 -1.504522,1.79229 -3.176639,3.545349 -5.169396,4.802181 -0.422119,0.266231 -0.880023,0.470968 -1.320036,0.706452 -0.36953,0.101113 -0.737386,0.208561 -1.108591,0.303339 -0.103296,0.02637 -0.228179,0.12295 -0.314164,0.05993 -0.167531,-0.122793 -0.299905,-0.324302 -0.327424,-0.530183 -0.136692,-1.022573 1.025678,-1.755246 1.687544,-2.271783 0.313394,-0.157023 0.611807,-0.34842 0.940179,-0.471069 0.281517,-0.105148 0.578305,-0.177296 0.877269,-0.20776 0.232222,-0.02366 0.465928,0.06486 0.69868,0.04717 0.03658,-0.0028 -0.08215,-0.119077 -0.05345,-0.09622 0.269505,0.214707 0.226442,0.162351 0.229683,0.420017 z"
         inkscape:label="1" />
    </g>
    <g
       id="g315"
       inkscape:label="Otoniel"
       transform="matrix(0.81591633,0,0,0.52253627,-22.780942,15.610833)"
       style="display:inline">
      <path
         style="fill:#ffffff;stroke:none;stroke-width:0.264583;stroke-linecap:round;stroke-dasharray:none"
         id="path306"
         d="m 63.440659,-29.935768 c -0.05659,0.894181 -0.09081,1.789471 -0.113768,2.68508 -0.03552,1.122885 -0.015,2.246198 0.01839,3.368794 0.04066,1.029253 0.06083,2.05905 0.06942,3.089018 0.02877,0.401602 -0.02408,0.810659 0.0088,1.211832 0.003,0.03654 0.04023,0.402486 0.139811,0.458317 0.129521,0.07262 0.284268,0.08594 0.426402,0.128914 0.08838,-0.06572 0.183037,-0.12376 0.26515,-0.197166 0.08739,-0.07812 0.837579,-0.837694 0.884653,-0.885192 0.402855,-0.406474 0.807612,-0.804253 1.232996,-1.187022 0.224266,-0.172832 0.419584,-0.394219 0.662834,-0.543567 0.08794,-0.05399 0.206386,-0.05001 0.168953,-0.169212 -0.152266,-0.06102 -0.294863,-0.156875 -0.456798,-0.183052 -0.0998,-0.01613 -0.458481,0.227785 -0.485476,0.250759 -0.231741,0.197236 -0.547741,0.583781 -0.688364,0.83754 -0.115163,0.207814 -0.188373,0.436247 -0.28256,0.654371 -0.07814,0.329898 -0.405966,1.219735 -0.07337,1.539542 0.497068,0.477953 0.732933,0.317583 1.203876,0.03129 0.109786,-0.105041 0.233587,-0.197162 0.329356,-0.315122 0.486434,-0.599142 0.789435,-1.491709 0.928947,-2.242606 0.02769,-0.149053 0.03427,-0.301265 0.05141,-0.451896 -0.0079,-0.297747 0.0067,-0.637519 -0.477253,-0.553861 -0.07838,0.01355 -0.212108,0.780736 -0.225565,0.85725 -0.04476,0.359401 -0.177443,1.139748 0.218411,1.379324 0.146515,0.08867 0.311679,0.142036 0.467519,0.213054 0.07365,-0.0176 0.151074,-0.02361 0.220945,-0.05279 0.452335,-0.188945 0.795055,-0.621611 1.081329,-0.999693 0.271476,-0.371573 0.47402,-0.78594 0.716608,-1.175484 -0.149908,-0.114283 0.183833,-0.06334 0.13848,-0.0967 -0.07824,-0.05754 -0.164335,-0.124588 -0.261366,-0.128772 -0.04564,-0.002 0.05163,0.07683 0.06557,0.12033 0.04901,0.152888 0.0738,0.410458 0.09329,0.56118 0.0682,0.60179 0.06656,1.207526 0.03559,1.811396 -0.01318,0.220172 -0.03428,0.439964 -0.08817,0.654172 -0.0079,0.02948 -0.01606,0.05892 -0.02268,0.08865 -0.01143,0.04579 -0.02888,0.09035 -0.04462,0.134967 0.0141,-0.146342 -0.01699,0.115934 0.33542,0.130599 0.04509,0.0019 -0.0073,-0.09012 -0.0062,-0.135229 0.0019,-0.07556 0.007,-0.151108 0.01524,-0.226235 0.02849,-0.258114 0.05739,-0.370995 0.109469,-0.631926 0.161549,-0.732533 0.483717,-1.426238 0.924947,-2.031387 0.127746,-0.136333 0.274703,-0.273778 0.478692,-0.24863 0.05231,0.0064 0.191047,0.08356 0.149714,0.05085 -0.05481,-0.04336 -0.134186,-0.123597 -0.191971,-0.08429 -0.04912,0.03341 0.07431,0.0927 0.111464,0.139055 0.266528,0.44829 0.180025,0.931948 0.06749,1.412753 -0.122272,0.536242 -0.372676,1.065091 -0.319802,1.623529 0.233977,0.234604 0.242393,0.2804 0.711021,0.374419 0.105161,0.0211 0.213738,-0.02544 0.317344,-0.05318 0.394544,-0.10566 0.71216,-0.319297 1.040921,-0.55101 0.612381,-0.4795 1.081278,-1.096664 1.525532,-1.727035 0.02104,-0.02961 0.226198,-0.335659 0.292754,-0.376183 0.0249,-0.01517 0.114326,0.02285 0.08609,0.01555 -0.09705,-0.02512 -0.216734,-0.13442 -0.292717,-0.06903 -0.07531,0.06481 0.02215,0.19757 0.02811,0.296751 0.0074,0.122782 0.0079,0.245879 0.01191,0.368818 0.04805,0.447167 0.180719,0.904931 0.622174,1.110165 0.620636,0.288537 0.433768,0.266343 0.914805,0.184088 0.114742,-0.08468 0.239617,-0.157129 0.344228,-0.254049 0.535456,-0.496088 0.95862,-1.250917 1.156571,-1.948669 -0.0016,-0.06522 0.03996,-0.148541 -0.0052,-0.195675 -0.119282,-0.12461 -0.268642,-0.271806 -0.441137,-0.270552 -0.117753,8.46e-4 -0.160255,0.174665 -0.22129,0.275369 -0.327469,0.540302 -0.470606,1.149197 -0.613396,1.755541 -0.02601,0.438973 -0.103209,1.175892 0.348025,1.474964 0.214227,0.141989 0.453818,0.271001 0.708758,0.303567 0.322143,0.04115 0.867873,-0.360451 1.084252,-0.492249 1.412476,-1.107438 2.131542,-2.759208 2.775342,-4.383548 0.234238,-0.705384 0.505503,-1.409187 0.638186,-2.144026 0.03135,-0.173599 0.09707,-0.622501 -0.01426,-0.689961 -0.16728,-0.101373 -0.379032,-0.09681 -0.568548,-0.14522 -0.107487,0.143116 -0.22992,0.276142 -0.322461,0.429347 -0.586785,0.971437 -0.93618,2.077249 -1.165228,3.181744 -0.09749,0.470116 -0.190695,0.943752 -0.225345,1.422618 -0.03124,0.43184 0.01897,0.865729 0.02846,1.298594 0.09315,0.326201 0.186298,0.652404 0.279445,0.978606 0,0 0.200797,0.09589 0.200797,0.09589 v 0 c -0.07551,-0.315227 -0.151032,-0.630454 -0.226546,-0.945682 -0.0026,-0.427372 -0.04272,-0.856162 -0.0079,-1.282117 0.11905,-1.453995 0.634426,-3.315989 1.449841,-4.55023 0.09482,-0.143526 0.223975,-0.261149 0.335962,-0.391723 -0.05186,-0.08964 -0.06499,-0.218736 -0.155572,-0.268926 -0.07399,-0.041 0.08618,0.151201 0.09495,0.235335 0.01593,0.152895 -0.0021,0.308234 -0.02246,0.460619 -0.09865,0.742888 -0.362101,1.45433 -0.594514,2.16163 -0.638662,1.620607 -1.361948,3.266235 -2.788413,4.35031 -1.031026,0.591977 -0.114617,0.138054 -1.090247,0.45184 -0.03243,0.01043 -0.04876,0.08832 -0.07618,0.06811 -0.465498,-0.343139 -0.416902,-0.953441 -0.382823,-1.455814 0.139689,-0.586049 0.140073,-0.714466 0.387273,-1.260252 0.07217,-0.159344 0.153416,-0.315726 0.251346,-0.46067 0.05656,-0.08372 0.214194,-0.119102 0.208521,-0.219976 -0.0052,-0.09327 -0.137668,-0.175124 -0.229904,-0.16029 -0.06411,0.01031 0.01839,0.128554 0.02756,0.192832 -0.02344,0.105208 -0.0364,0.213315 -0.07032,0.315624 -0.188487,0.568387 -0.601507,1.228532 -1.05295,1.622522 -0.104658,0.09134 -0.230338,0.155337 -0.345508,0.233006 -0.100751,0.01328 -0.215197,-0.01257 -0.302255,0.03985 -0.03608,0.02172 0.07578,0.127051 0.03401,0.121668 -0.09777,-0.0126 -0.180427,-0.08542 -0.254788,-0.150125 -0.272061,-0.236741 -0.345721,-0.586445 -0.38221,-0.92628 -0.0016,-0.122171 -0.0024,-0.244349 -0.0044,-0.366513 -0.0016,-0.09974 0.04694,-0.214793 -0.0062,-0.299201 -0.389692,-0.618728 -0.529892,-0.278628 -0.764736,0.07471 -0.436325,0.630482 -0.896639,1.24899 -1.509742,1.721695 -0.285004,0.196776 -0.37523,0.281153 -0.692809,0.415575 -0.112279,0.04752 -0.228193,0.08817 -0.346914,0.115913 -0.103291,0.02414 -0.231444,-0.0253 -0.315828,0.03898 -0.04279,0.03259 0.134088,0.121988 0.08288,0.138461 -0.06063,0.01951 -0.101037,-0.07758 -0.151556,-0.116369 -0.06478,-0.553936 0.183594,-1.084279 0.307255,-1.615478 0.120404,-0.489061 0.215747,-0.97877 -0.04796,-1.440552 -0.195178,-0.268587 -0.115269,-0.197787 -0.571067,-0.437687 -0.24984,-0.131499 -0.49014,0.06737 -0.642493,0.243967 -0.426307,0.617253 -0.753867,1.315904 -0.930548,2.045543 -0.06118,0.283671 -0.124909,0.565434 -0.147259,0.855485 -0.0034,0.0448 -0.03301,0.100843 -0.0035,0.134741 0.290254,0.333647 0.253336,0.361491 0.363596,0.2391 0.02387,-0.04482 0.04217,-0.09119 0.05882,-0.139081 0.0041,-0.02975 0.0082,-0.05991 0.01588,-0.08914 0.04545,-0.221616 0.05242,-0.448986 0.06541,-0.674113 0.01897,-0.608567 0.01598,-1.217738 -0.04771,-1.824084 -0.01839,-0.162453 -0.127542,-1.487106 -0.655389,-0.787577 -0.220982,0.400724 -0.426251,0.811615 -0.694571,1.183995 -0.277677,0.374341 -0.613725,0.811893 -1.069777,0.97918 -0.06827,0.02504 -0.143171,0.02556 -0.214757,0.03834 0.0328,0.0382 0.141193,0.141151 0.0984,0.114611 -0.431662,-0.267728 -0.271965,-0.951596 -0.229108,-1.349789 0.04493,-0.230216 0.06988,-0.413461 0.150908,-0.63217 0.02347,-0.06335 0.112059,-0.117725 0.09003,-0.181598 -0.03526,-0.102254 -0.140081,-0.16939 -0.231177,-0.227708 -0.124079,-0.07944 0.580898,0.678461 0.106773,0.42889 -0.01254,0.151601 -0.01553,0.3043 -0.03764,0.454805 -0.114922,0.782406 -0.400545,1.615276 -0.919771,2.22598 -0.09728,0.114416 -0.220731,0.203702 -0.331097,0.305553 -0.788054,0.446643 0.08085,0.0097 -0.657604,0.236052 -0.01672,0.0051 0.03147,0.0625 0.02434,0.04651 -0.05003,-0.112272 -0.134726,-0.213925 -0.15312,-0.335458 -0.06353,-0.419768 0.08505,-0.798817 0.18805,-1.194928 0.09893,-0.212821 0.177337,-0.436449 0.296797,-0.638462 0.162983,-0.275611 0.455351,-0.605272 0.715248,-0.805131 0.08624,-0.06632 0.184547,-0.116641 0.283851,-0.161071 0.06662,-0.02981 0.21159,0.01285 0.210539,-0.06013 -0.0013,-0.09486 -0.142735,-0.124999 -0.214103,-0.187498 0.01701,0.0011 0.04688,-0.01314 0.05102,0.0034 2.35e-4,9.52e-4 -0.108998,0.14149 -0.117279,0.149826 -0.19848,0.199797 -0.442196,0.354659 -0.628968,0.567393 -0.401312,0.401307 -0.797727,0.807764 -1.200272,1.207783 -0.261234,0.259594 -0.626864,0.623535 -0.922417,0.856456 -0.08457,0.06665 -0.181023,0.116635 -0.271537,0.174953 0.02429,0.05207 0.129588,0.147198 0.07285,0.156207 -0.110408,0.01753 -0.111392,-0.237967 -0.116626,-0.429068 -0.01103,-0.403168 0.0092,-0.806958 -0.0049,-1.210133 -0.01408,-1.031598 -0.03017,-2.063292 -0.07756,-3.094015 -0.04592,-1.125488 -0.06249,-2.251218 -0.0394,-3.377572 0.01323,-0.898977 0.02503,-1.798518 0.0926,-2.695469 z"
         inkscape:label="2" />
      <path
         style="fill:#ffffff;stroke:none;stroke-width:0.264583;stroke-linecap:round;stroke-dasharray:none"
         id="path300"
         d="m 68.045106,-28.241786 c 0.717984,-0.113093 1.493603,-0.24021 2.194733,0.03275 0.156149,0.06079 0.293643,0.161512 0.440465,0.242269 0.154628,0.255148 0.416745,0.488923 0.388258,0.81847 -0.03701,0.428188 -0.487437,0.583816 -0.808644,0.728236 -0.168148,0.03331 -0.333555,0.08648 -0.504444,0.09993 -1.11124,0.08744 -2.35335,-0.421162 -3.386384,-0.777207 -1.315935,-0.445548 -2.665773,-0.853789 -4.063935,-0.91753 -0.311471,-0.01421 -0.623573,0.0038 -0.935361,0.0056 -0.779669,0.09707 -1.18337,0.107921 -1.9381,0.363868 -1.190257,0.403648 -2.248324,1.127059 -3.159165,1.983106 -0.344244,0.323536 -0.646938,0.688613 -0.97041,1.03292 -0.272132,0.382919 -0.581393,0.741994 -0.816399,1.148756 -0.765101,1.324292 -1.33318,3.288203 -0.600636,4.753391 0.140084,0.280181 0.385276,0.494025 0.577914,0.741037 0.381204,0.153758 0.738129,0.393886 1.143614,0.461274 0.365816,0.0608 0.747829,-0.0032 1.109102,-0.0869 1.314815,-0.304502 2.479665,-1.170832 3.404225,-2.117735 0.317484,-0.325156 0.586158,-0.69463 0.879235,-1.041945 0.640387,-0.908007 1.220216,-1.869024 1.353757,-2.995358 0.05807,-0.489795 0.03195,-1.022969 -0.223735,-1.463569 -0.100073,-0.172453 -0.273529,-0.290174 -0.410292,-0.435261 -0.273349,-0.107132 -0.527894,-0.292348 -0.820047,-0.321396 -0.234109,-0.02328 -0.470607,0.07396 -0.684565,0.171795 -0.738936,0.337889 -1.477092,1.160444 -1.748105,1.923417 -0.08909,0.250822 -0.07968,0.526354 -0.119525,0.789532 0.106063,0.2319 0.212127,0.4638 0.31819,0.6957 0,0 0.07156,0.03329 0.07156,0.03329 v 0 c -0.05703,-0.204362 -0.114067,-0.408724 -0.171101,-0.613085 0.04516,-0.256762 0.04377,-0.526243 0.135472,-0.770285 0.286457,-0.762331 1.011712,-1.559167 1.761954,-1.886922 0.460436,-0.201148 0.583134,-0.163586 0.979368,-0.137258 0.141021,0.142366 0.317919,0.25651 0.423059,0.427098 0.274061,0.444664 0.310779,0.960748 0.26231,1.466063 -0.108505,1.131217 -0.664861,2.098209 -1.305115,3.009959 -0.29136,0.347179 -0.556292,0.718371 -0.874076,1.041537 -1.180444,1.200434 -2.800051,2.261054 -4.555305,2.144652 -0.235011,-0.01559 -0.454052,-0.125421 -0.68108,-0.188131 -0.197636,-0.24563 -0.44721,-0.457306 -0.592908,-0.736888 -0.765284,-1.468522 -0.222337,-3.416388 0.552397,-4.754467 0.234903,-0.405712 0.543886,-0.763752 0.815827,-1.145628 0.324345,-0.342658 0.627155,-0.707069 0.973037,-1.027973 0.91979,-0.853368 1.990334,-1.557066 3.186767,-1.952134 0.768237,-0.253675 1.148745,-0.259657 1.940788,-0.354193 0.312214,-2.64e-4 0.624817,-0.0168 0.936636,-0.0011 1.401755,0.07024 2.75525,0.483822 4.07409,0.933347 1.025943,0.348861 2.277684,0.83708 3.377224,0.752229 0.174011,-0.01343 0.342488,-0.06738 0.513734,-0.101078 0.334759,-0.149925 0.798206,-0.310749 0.837327,-0.755532 0.04577,-0.520295 -0.506389,-0.861587 -0.847691,-1.105572 -0.146322,-0.07762 -0.283837,-0.174808 -0.43897,-0.232844 -0.71704,-0.268251 -1.499381,-0.126347 -2.235677,-0.05174 z"
         inkscape:label="1" />
    </g>
    <g
       id="g316"
       inkscape:label="Garcia"
       transform="matrix(0.86004281,0,0,0.52253627,-25.439089,15.583114)"
       style="display:inline">
      <path
         style="fill:#ffffff;stroke:none;stroke-width:0.264583;stroke-linecap:round;stroke-dasharray:none"
         id="path311"
         d="m 92.808422,-22.571599 c -0.789022,0.170012 -1.451653,0.76787 -1.817463,1.479344 -0.0756,0.147037 -0.112972,0.310771 -0.169458,0.466157 -5.29e-4,0.134835 -0.03781,0.274584 -0.0019,0.404505 0.09695,0.349164 0.597416,0.52553 0.867897,0.576721 0.143552,0.02717 0.292587,-0.03651 0.429453,-0.08762 0.43614,-0.162883 0.548516,-0.325711 0.896308,-0.63625 0.63259,-0.677624 1.012595,-1.52237 1.396805,-2.352531 0.07918,-0.108195 0.303773,-0.353846 -0.278982,-0.238671 -0.06998,0.01383 0.01953,0.141748 0.01976,0.213078 5.29e-4,0.121764 -0.0092,0.243397 -0.01778,0.36486 -0.01214,0.172347 -0.07255,0.799939 -0.08752,0.958411 -0.06414,0.887124 -0.185184,1.591008 0.81242,1.963681 0.09532,0.03561 0.203398,-0.0071 0.305096,-0.01059 0.106826,-0.0521 0.224787,-0.0858 0.320474,-0.156289 0.60375,-0.444781 0.953066,-1.302837 1.219216,-1.977449 0.08815,-0.241477 0.166659,-0.486534 0.231042,-0.735433 0.02339,-0.09042 0.03102,-0.182486 0.07102,-0.266604 0.33155,-0.183662 0.714669,-0.275781 1.078019,-0.380245 0.202449,-0.05028 0.399214,-0.119618 0.598721,-0.179621 0.116742,-0.02349 0.582623,-0.112928 -0.339072,-0.146402 -0.04511,-0.0016 -0.02995,0.08522 -0.0472,0.126938 -0.123788,0.299149 -0.262456,0.59247 -0.388628,0.89073 -0.206907,0.600414 -0.562058,1.398234 -0.352701,2.046833 0.02495,0.0773 0.08053,0.1411 0.120791,0.211649 0.168844,0.08339 0.32059,0.22036 0.506531,0.250177 0.150098,0.02407 0.499375,-0.374796 0.535171,-0.41638 0.338441,-0.39318 0.612325,-0.848136 0.898535,-1.27906 0.510133,-0.793714 0.956333,-1.296746 1.820413,-1.684838 0.22164,-0.07842 0.45284,-0.148236 0.69125,-0.132817 0.0536,0.0035 0.107,0.01331 0.15842,0.02864 0.0417,0.01243 0.15654,0.07561 0.11877,0.05405 -0.0821,-0.0469 -0.1681,-0.0868 -0.25215,-0.130203 0.0699,0.07017 0.1401,0.16466 0.13645,0.269414 -0.002,-0.0048 -0.0105,-0.01663 -0.006,-0.01445 0.1094,0.05063 0.20818,0.126588 0.32355,0.161522 0.0426,0.0129 -0.0649,-0.06099 -0.0962,-0.09268 -0.0427,-0.04326 -0.0821,-0.08976 -0.12567,-0.132111 -0.1552,-0.150754 -0.15134,-0.137438 -0.33061,-0.264515 -0.23369,-0.125259 -0.47142,-0.341665 -0.76109,-0.310396 -0.48203,0.05204 -0.7597,0.563768 -0.9881,0.921448 -0.3723,0.701793 -0.723164,1.478307 -0.671025,2.294809 0.0081,0.126568 0.04431,0.249752 0.06647,0.374629 0.04651,0.101432 0.07852,0.210864 0.139522,0.304297 0.232083,0.355446 0.684483,0.590688 1.108423,0.53419 0.28017,-0.03734 0.43959,-0.136738 0.69236,-0.255189 0.68458,-0.418648 1.18291,-1.068149 1.66982,-1.693239 0.11495,-0.144254 0.21898,-0.296651 0.32832,-0.445036 -0.008,-0.0024 0.019,-0.01481 0.0124,-0.0169 -0.12687,-0.03985 -0.25044,-0.112971 -0.38339,-0.110294 -2.6e-4,7e-6 -0.0306,0.443757 -0.0327,0.477776 -0.031,0.457465 -0.0641,0.923081 0.14852,1.341802 0.17433,0.08376 0.33466,0.207251 0.52299,0.251293 0.0828,0.01936 0.16619,-0.03927 0.24475,-0.07176 0.38165,-0.157837 0.71633,-0.437413 1.0362,-0.691983 0.19281,-0.179676 0.40962,-0.337261 0.58804,-0.532286 0.0391,-0.04867 0.046,-0.11003 0.0559,-0.169721 0.0214,-0.133002 0.0417,-0.266171 0.0625,-0.39926 0.007,-0.109856 0.15601,-0.07895 0.23704,-0.08239 0.13912,-0.0033 0.27831,-0.0018 0.41741,0.0012 0.011,0.02646 0.11764,-0.01231 0.088,-0.03411 -0.43199,-0.317957 -0.3999,-0.333645 -0.81157,-0.160359 -0.67575,0.442867 -1.23773,1.15121 -1.33624,1.978075 -0.0152,0.127449 0.006,0.256624 0.009,0.384937 0.0411,0.09204 0.0447,0.213181 0.12342,0.276127 0.1726,0.137957 0.37763,0.24666 0.59291,0.29642 0.11739,0.02713 0.24042,-0.03483 0.35298,-0.07779 0.45741,-0.174609 0.79658,-0.52298 1.1351,-0.859014 0.29974,-0.342705 0.53744,-0.728526 0.74641,-1.131108 0.1067,-0.205554 0.19034,-0.422317 0.31354,-0.618494 -0.11859,-0.05262 -0.22761,-0.177998 -0.35578,-0.157853 -0.0695,0.01093 0.0255,0.138632 0.0324,0.208684 0.0396,0.400888 0.034,0.806875 0.30326,1.143249 0.10005,0.124988 0.24206,0.209612 0.3631,0.314417 0.99,0.415341 0.52844,0.390144 1.36178,0.261901 0,0 -0.0509,-0.03698 -0.0509,-0.03698 v 0 c -0.82136,-0.09541 -0.50282,-0.09837 -0.95233,-0.07976 -0.45203,-0.377435 -0.55779,-0.455252 -0.6289,-1.066433 -0.0133,-0.11398 -0.007,-0.229388 -0.0104,-0.344088 -0.002,-0.07767 0.0474,-0.176823 -0.006,-0.233025 -0.11266,-0.117992 -0.28891,-0.151598 -0.43337,-0.227396 -0.10515,0.208658 -0.17165,0.431878 -0.27237,0.64336 -0.19353,0.406342 -0.43354,0.786937 -0.7264,1.129596 -0.33434,0.329994 -0.67418,0.677858 -1.13295,0.833818 -0.11084,0.03768 -0.24528,-0.0021 -0.34664,0.05651 -0.036,0.0208 0.0844,0.142737 0.068,0.104516 -0.0391,-0.09134 -0.0911,-0.176571 -0.13664,-0.264857 -0.006,-0.12594 -0.0303,-0.252398 -0.0175,-0.377819 0.0679,-0.664508 0.47949,-1.292376 0.99201,-1.703446 0.10862,-0.08712 0.23516,-0.149185 0.35274,-0.223777 0.0919,-0.02798 0.18062,-0.07059 0.27578,-0.08395 0.0409,-0.0057 0.15041,0.05683 0.12058,0.02829 -0.32415,-0.310093 -0.21902,-0.218486 -0.34583,-0.221799 -0.13863,-1.85e-4 -0.27731,-0.0017 -0.41589,0.003 -0.10194,0.0058 -0.26207,-0.008 -0.27131,0.127744 -0.0169,0.133107 -0.0386,0.265439 -0.0636,0.397243 -0.009,0.05093 -0.0153,0.106432 -0.046,0.149109 -0.1668,0.199009 -0.36657,0.368767 -0.55843,0.542363 -0.31329,0.255112 -0.64774,0.535695 -1.03434,0.673106 -0.077,0.02737 -0.21293,-0.02644 -0.23984,0.05072 -0.0253,0.07261 0.11097,0.106488 0.16645,0.159731 -0.23387,-0.417411 -0.18009,-0.856239 -0.15037,-1.317158 0.0198,-0.243762 0.01,-0.135663 0.032,-0.354903 0.0293,-0.287275 0.0405,-0.09548 -0.35278,-0.390493 -0.0567,0.171632 -0.20325,0.305928 -0.28831,0.461054 -0.46452,0.636615 -0.95382,1.284726 -1.6473,1.686329 -0.2569,0.115688 -0.40552,0.208888 -0.68963,0.236908 -0.10401,0.01026 -0.21018,-0.03467 -0.31312,-0.01658 -0.0251,0.0044 0.06,0.08131 0.041,0.06441 -0.25849,-0.229558 -0.20514,-0.199557 -0.35968,-0.515105 -0.02426,-0.123072 -0.06277,-0.244176 -0.07281,-0.369217 -0.06505,-0.81085 0.28306,-1.585659 0.66079,-2.277898 0.20566,-0.303449 0.40715,-0.652071 0.75846,-0.8128 0.0727,-0.03328 0.15333,-0.05258 0.23322,-0.05644 0.0739,-0.0036 0.16268,0.08228 0.21918,0.03455 0.044,-0.03715 -0.0929,-0.06799 -0.13936,-0.101978 0.16882,0.114503 0.18688,0.115923 0.33192,0.256027 0.13181,0.127334 0.45565,0.598435 0.64427,0.422488 0.003,-0.119462 -0.0599,-0.228032 -0.13869,-0.313491 -0.14066,-0.08543 -0.27789,-0.176779 -0.42197,-0.256302 -0.29013,-0.160129 -0.6755,0.0096 -0.95497,0.09704 -0.83527,0.398478 -1.325592,0.926516 -1.819251,1.70786 -0.283851,0.429778 -0.558099,0.883467 -0.908151,1.264463 -0.08971,0.09764 -0.183727,0.193782 -0.29255,0.269537 -0.07125,0.0496 -0.202655,0.02279 -0.239974,0.101164 -0.02635,0.05534 0.08653,0.08682 0.129799,0.130226 -0.04246,-0.06647 -0.100285,-0.125337 -0.127381,-0.199411 -0.227521,-0.621988 0.120774,-1.455504 0.33887,-2.02983 0.134991,-0.294374 0.278284,-0.583285 0.417788,-0.875351 0.02061,-0.04316 0.0864,-0.09117 0.05938,-0.130636 -0.243205,-0.35514 -0.225317,-0.361639 -0.352444,-0.267756 -0.181676,0.08467 -0.3805,0.130141 -0.56864,0.196953 -0.36957,0.117282 -0.775988,0.195522 -1.106604,0.398875 -0.04312,0.08995 -0.04778,0.178677 -0.06843,0.276671 -0.0531,0.251986 -0.124127,0.499862 -0.20691,0.743659 -0.253693,0.678507 -0.594024,1.52115 -1.216856,1.947086 -0.09517,0.06509 -0.210801,0.09349 -0.316203,0.140228 -0.09879,-0.0024 -0.198837,-0.02305 -0.296355,-0.0071 -0.02498,0.0041 0.07297,0.06782 0.06072,0.04566 -0.05303,-0.09593 -0.143433,-0.17028 -0.18556,-0.271472 -0.172836,-0.415183 -0.08004,-0.898503 -0.06017,-1.327727 0.04519,-0.437027 0.104865,-0.874684 0.136165,-1.313016 0.0055,-0.07763 0.05951,-0.175076 0.0079,-0.233348 -0.365067,-0.412347 -0.364411,-0.332755 -0.477076,-0.129493 -0.331533,0.849212 -0.718206,1.686941 -1.348312,2.361079 -0.346064,0.299208 -0.464058,0.464537 -0.89858,0.610628 -0.136274,0.04582 -0.291452,0.01712 -0.425913,0.06801 -0.03008,0.01139 0.01773,0.115655 -0.0079,0.09618 -0.286983,-0.218384 -0.210246,-0.322279 -0.219469,-0.656818 0.05353,-0.153592 0.087,-0.315718 0.160578,-0.460775 0.360537,-0.710772 1.041448,-1.296508 1.836693,-1.419939 z"
         inkscape:label="2" />
      <path
         style="fill:#ffffff;stroke:none;stroke-width:0.264583;stroke-linecap:round;stroke-dasharray:none"
         id="path310"
         d="m 91.805434,-27.766438 c -0.359101,-0.593836 -1.18626,-1.056211 -1.867581,-1.079799 -0.228168,-0.0079 -0.454559,0.04321 -0.681836,0.06481 -0.292484,0.148747 -0.605124,0.263176 -0.877449,0.446234 -1.597274,1.073682 -2.929711,3.171791 -3.430067,5.009814 -0.122063,0.448383 -0.139687,0.918843 -0.209529,1.378265 0.07828,0.373448 0.08839,0.767998 0.234829,1.120345 0.381023,0.916807 1.396256,1.498394 2.370312,1.439947 0.703141,-0.04219 0.835795,-0.233241 1.398903,-0.601277 0.862039,-0.816221 1.320631,-1.90267 1.610186,-3.031733 -0.31699,0.254593 0.169442,-0.344879 0.06326,-0.320597 -0.155069,0.03546 -0.360219,0.04604 -0.440608,0.183304 -0.12256,0.209272 -0.06204,0.481071 -0.0896,0.72202 -0.127905,1.118359 -0.09371,0.831672 -0.165751,2.028285 0.03991,1.446191 -0.02917,0.741848 0.195951,2.114106 0,0 0.03909,0.01952 0.03909,0.01952 v 0 c 0.01037,-1.276721 -0.0024,-0.613397 0.04216,-1.989899 0.07917,-0.96538 0.07192,-1.085575 0.208425,-2.003038 0.035,-0.23523 0.154263,-0.467296 0.122111,-0.702932 -0.02895,-0.212146 -0.184505,-0.387264 -0.295828,-0.57016 -0.05718,-0.09394 0.179945,0.763386 -0.03398,0.328174 -0.244091,1.137465 -0.681625,2.222791 -1.545831,3.036504 -0.213479,0.137628 -0.406553,0.313827 -0.64044,0.412883 -0.532881,0.225687 -1.534557,0.281006 -1.990299,-0.162843 -0.718241,-0.699501 -0.609217,-0.912065 -0.837039,-1.892896 0.0622,-0.461327 0.06871,-0.933655 0.1866,-1.383982 0.482793,-1.844291 1.849414,-3.931871 3.486516,-4.949369 0.281583,-0.175009 0.603809,-0.274013 0.905711,-0.411022 1.006844,-0.07113 0.351261,-0.08977 1.229117,0.07104 0.02183,0.004 0.04677,-0.01863 0.06612,-0.0078 0.241686,0.13571 0.442069,0.326912 0.581986,0.564767 z"
         inkscape:label="1" />
    </g>
    <g
       id="g317"
       inkscape:label="Hernandez"
       transform="matrix(0.90431948,0,0,0.52253627,-26.795502,15.912655)"
       style="display:inline">
      <path
         style="fill:#ffffff;stroke:none;stroke-width:0.264583;stroke-linecap:round;stroke-dasharray:none"
         id="path312"
         d="m 109.20633,-25.888181 c 0.89523,-0.122809 1.68005,-0.865566 2.34784,-1.419699 0.32622,-0.260872 0.62457,-0.554525 0.94661,-0.820254 0.11464,-0.09459 0.22275,-0.201178 0.35369,-0.271484 0.0677,-0.03635 0.28013,-0.09583 0.227,-0.0403 -0.78036,0.815597 0.0219,-1.637853 -0.54919,1.280329 -0.46007,1.760913 -0.9889,3.502437 -1.45669,5.261277 -0.1928,0.724888 -0.61846,2.292814 -0.70548,3.096393 -0.0363,0.335658 0.007,0.675203 0.0107,1.012805 0,0 0.0961,0.04981 0.0961,0.04981 v 0 c 0.15931,-1.009598 0.17721,-1.214045 0.43333,-2.329817 0.53655,-2.337492 1.26164,-4.626063 1.918,-6.931069 0.0997,-0.369891 0.32201,-0.727245 0.29923,-1.109668 -0.028,-0.470424 -0.31147,-0.700794 -0.61202,-0.502254 -0.12198,0.08058 -0.2222,0.190072 -0.33109,0.287616 -0.14312,0.128217 -0.28144,0.261739 -0.42486,0.389612 -0.16654,0.148471 -0.33663,0.292904 -0.50494,0.439359 -0.69568,0.566788 -1.43318,1.226862 -2.3463,1.38826 z"
         inkscape:label="1" />
      <path
         style="fill:#ffffff;stroke:none;stroke-width:0.264583;stroke-linecap:round;stroke-dasharray:none"
         id="path313"
         d="m 116.32475,-31.66659 c -0.16093,0.0065 0.22589,-0.232185 0.13295,-0.252683 -0.13544,-0.02987 -0.32681,-0.08415 -0.41546,0.02252 -0.12073,0.145257 -0.0371,0.376347 -0.0706,0.56223 -0.15866,0.88021 -0.48697,2.277261 -0.66894,3.083325 -0.62981,2.871962 -1.40669,5.720491 -1.83473,8.633544 -0.0875,0.595651 -0.13536,1.196461 -0.20304,1.794692 0,0 0.0187,0.0099 0.0187,0.0099 v 0 c 0.75123,-3.430115 1.44197,-6.874568 2.3208,-10.275423 0.14942,-0.596541 0.30074,-1.192607 0.44824,-1.789621 0.10311,-0.417312 0.21136,-0.833485 0.3036,-1.253332 0.0403,-0.18343 0.1474,-0.375563 0.0938,-0.555551 -0.058,-0.194553 -0.23695,-0.336915 -0.3969,-0.46192 -0.0799,-0.06244 -0.0333,0.41692 -0.0738,0.295153 z"
         inkscape:label="2" />
      <path
         style="fill:#ffffff;stroke:none;stroke-width:0.264583;stroke-linecap:round;stroke-dasharray:none"
         id="path320"
         d="m 93.141487,3.0152223 c 0.09885,0.00937 0.197258,0.028316 0.296551,0.028124 1.164892,-0.00225 2.410918,-0.5380859 3.467238,-0.9715321 0.863452,-0.3785688 1.676536,-0.8437495 2.396417,-1.45590995 0.576601,-0.49032273 1.062357,-1.05486116 1.529967,-1.64550395 0.0654,-0.1230031 0.14969,-0.2376953 0.19621,-0.3690094 0.10398,-0.2935105 -0.1399,-0.4226634 -0.47975,-0.4156303 -0.13027,0.0027 -0.23036,0.1285296 -0.32297,0.2201794 -0.359011,0.3552753 -0.71315,0.90920687 -0.993834,1.31197769 -0.427003,0.69399265 -1.627436,2.46041701 -0.132651,2.79576071 0.172934,0.038796 0.349866,-0.056915 0.524801,-0.085373 0.207341,-0.084596 0.422554,-0.1520108 0.622024,-0.2537888 0.9391,-0.479172 1.7789,-1.21521782 2.39629,-2.06451131 0.091,-0.19975358 0.14429,-0.25561318 0.15382,-0.46143556 0.003,-0.0623529 -0.0581,-0.1491677 -0.009,-0.18706387 0.0197,-0.0150392 0.0493,-0.005476 0.0741,-0.005781 0.0555,-6.8263e-4 0.11092,0.001879 0.16638,0.002819 0.48945,0.0382041 0.9714,-0.0359959 1.44139,-0.16868483 -0.13668,4.6302e-4 -0.28492,-0.0536254 -0.41004,0.001389 -0.11776,0.0517768 -0.17211,0.19133296 -0.25396,0.29056856 -0.10981,0.13313038 -0.21837,0.26746643 -0.32085,0.4063172 -0.36191,0.49035655 -0.6355,1.00112499 -0.89461,1.55054871 -0.13637,0.3521703 -0.30065,0.8017751 -0.0458,1.1534326 0.1454,0.2006375 0.66473,0.3495321 0.80749,0.3606385 0.12605,0.00981 0.24,-0.079629 0.35999,-0.1194435 0.86538,-0.4183491 1.48173,-1.1520537 2.07008,-1.8871195 0.212,-0.27286804 0.43197,-0.53982272 0.66395,-0.79599864 0.11283,-0.12458639 0.2082,-0.24532234 0.367,-0.3039742 0.0196,0.01089835 0.0804,0.03959922 0.059,0.03269504 -0.0849,-0.0274017 -0.16288,-0.11138673 -0.25051,-0.09447884 -0.0459,0.008865 0.0252,0.09030879 0.0329,0.13647333 0.0365,0.22053167 0.0288,0.44665441 0.0297,0.6691646 -0.007,0.45624321 -0.10645,0.90157511 -0.22117,1.34073431 -0.0498,0.2123739 -0.14874,0.406684 -0.23364,0.6058522 0.071,0.00711 -0.0472,0.040235 -0.03,0.048331 0.10904,0.051476 0.21303,0.1425448 0.33358,0.1399151 0.0522,-0.00114 0.0314,-0.099638 0.0503,-0.1482878 0.0843,-0.2170904 0.1304,-0.3010894 0.23554,-0.5204282 0.36513,-0.7314092 0.83934,-1.39759411 1.34439,-2.03738069 0.26012,-0.29366413 0.5399,-0.72766846 0.97031,-0.75737456 0.0316,0.0139319 0.12684,0.0549443 0.0949,0.0417958 -0.0744,-0.0305984 -0.1429,-0.10786655 -0.22215,-0.0941524 -0.0447,0.007741 0.0473,0.0786511 0.0602,0.12218097 0.0222,0.0750823 0.0333,0.15316645 0.0443,0.23069804 0.029,0.20462471 0.0342,0.37997866 0.0456,0.58644854 0.0503,0.52812613 -0.009,1.0271745 -0.20084,1.5196245 -0.0138,0.059062 -0.26809,0.4915571 -0.18757,0.5222801 0.44996,0.1716944 0.32859,0.1829794 0.61012,-0.036662 0.92915,-0.7966035 2.01152,-1.37558949 3.11679,-1.88556005 0.40798,-0.17769526 0.82512,-0.33337367 1.24581,-0.47800667 0.0159,-0.005473 0.28573,-0.0820501 0.31263,-0.12334297 0.012,-0.0184891 -0.014,-0.0418482 -0.021,-0.0627723 -0.16465,-0.0578257 -0.31986,-0.16122196 -0.49394,-0.1734772 -0.11643,-0.008197 -0.6306,0.31299488 -0.6681,0.33846149 -0.43065,0.29251502 -0.77779,0.65594019 -1.12506,1.03893916 -0.15993,0.25349574 -0.48899,0.50897204 -0.51849,0.83595394 -0.0175,0.1935212 0.3114,0.2640883 0.50341,0.2939001 0.0763,0.011848 0.14587,-0.050767 0.2188,-0.076151 0.67858,-0.2840442 1.21285,-0.8003239 1.72154,-1.31665806 0.23748,-0.25762202 0.4711,-0.51916568 0.68786,-0.79458893 0.0727,-0.0861095 0.14934,-0.21904584 -0.28892,-0.11888608 -0.053,0.0121068 -0.0139,0.10781762 -0.0228,0.16141732 -0.0123,0.07351224 -0.0272,0.14655488 -0.0408,0.21983233 -0.11823,0.60236851 -0.29658,1.20431972 -0.2698,1.82263952 0.20557,0.200753 0.23551,0.2736466 0.66985,0.2388087 0.11537,-0.00925 0.20215,-0.1141082 0.29478,-0.183498 0.34578,-0.2590012 0.61017,-0.5960953 0.87814,-0.9297552 0.45905,-0.57414714 0.85457,-1.23949648 1.46871,-1.66432772 -0.11997,-0.13125612 0.36902,0.003167 0.27711,0.0134578 -0.0697,0.007801 -0.16597,-0.10232861 -0.20555,-0.0444702 -0.0482,0.0705446 0.0539,0.16309051 0.0666,0.24761834 0.0412,0.27464303 0.0148,0.44795508 -0.002,0.72731003 -0.0671,0.64352665 -0.2509,1.26517535 -0.52562,1.84907865 -0.0695,0.1375609 -0.14599,0.271408 -0.22771,0.4020061 -0.014,0.022266 -0.0261,0.045857 -0.0427,0.066234 -0.006,0.00731 -0.0322,0.011425 -0.0237,0.01538 0.11495,0.053193 0.23613,0.09171 0.3542,0.1375653 0.45773,-0.7814227 1.06527,-1.4685498 1.6695,-2.13896104 0.33134,-0.34267096 0.66189,-0.69008031 1.02723,-0.99755773 0.0686,-0.0577125 0.26056,-0.22850071 0.38467,-0.23645785 0.0389,-0.002495 0.0711,0.0321646 0.10663,0.0482469 -0.0771,-0.0159419 -0.17216,-0.0997375 -0.23139,-0.0478257 -0.055,0.048186 0.0377,0.14259262 0.0399,0.21566907 0.003,0.10332238 -0.006,0.20736298 -0.0244,0.3091445 -0.0754,0.42559379 -0.27771,0.79523153 -0.47722,1.17200465 -0.17376,0.2973678 -0.36462,0.5851016 -0.56968,0.861827 -0.0386,0.052078 -0.0777,0.1038415 -0.11971,0.1532385 -0.0204,0.024012 -0.0969,0.056552 -0.0671,0.066606 0.13525,0.045538 0.28316,0.035878 0.42474,0.053818 0.64478,-0.6814112 1.48216,-1.0560675 2.34893,-1.3682736 0.54949,-0.19063292 1.11845,-0.30239824 1.69074,-0.39422397 0.01,-0.004974 0.0379,-0.009019 0.0289,-0.0149228 -0.12278,-0.079831 -0.24365,-0.17017676 -0.38297,-0.21531919 -0.20386,-0.0660533 -0.92329,0.5643887 -1.05151,0.67759108 -0.31175,0.35827758 -0.78678,0.84179898 -0.90935,1.31885958 -0.0136,0.053114 -0.0345,0.1305484 0.009,0.1642863 0.13891,0.108404 0.32098,0.1454912 0.48146,0.2182366 0.92566,-0.449418 1.63258,-1.2526546 2.30323,-2.01205432 0.87098,-1.00996715 1.60317,-2.12654478 2.27786,-3.27394128 0.18297,-0.3228801 0.34251,-0.6581321 0.49214,-0.9974847 0.0302,-0.068568 0.0578,-0.138307 0.0884,-0.206692 0.0195,-0.043441 0.0968,-0.096338 0.0619,-0.1287084 -0.0996,-0.092403 -0.24962,-0.1074524 -0.37444,-0.1611784 -0.67612,1.1019271 -1.18453,2.2938356 -1.60914,3.51158354 -0.0533,0.22437587 -0.13824,0.44352785 -0.15995,0.67312764 -0.059,0.6238678 0.22717,1.04677282 0.84393,1.22566482 0.24859,0.072105 0.67383,-0.1439903 0.87185,-0.2221986 0.87502,-0.46696335 1.56201,-1.18588537 2.13809,-1.98069539 0.17619,-0.33435731 0.18973,-0.51881721 -0.33033,-0.61313381 -0.21811,-0.039557 -0.77345,0.4818201 -0.90849,0.60018243 -0.29121,0.3477685 -0.83574,1.13611716 -0.70379,1.63288622 0.0152,0.0570791 0.0625,0.10020413 0.0938,0.1503062 0.16409,0.0658818 0.31623,0.18102765 0.49227,0.19764535 0.12489,0.011789 0.87296,-0.31344178 0.90372,-0.32689834 0.60962,-0.26666702 1.19896,-0.55988232 1.8214,-0.79650034 -0.43252,-0.30532849 0.62395,-0.0020016 0.46993,0.02806656 -0.10829,0.0211425 -0.22346,-0.08253443 -0.32774,-0.0464713 -0.0672,0.02323582 -0.0612,0.12834128 -0.093,0.19196021 -0.0329,0.0659105 -0.0748,0.1277274 -0.10086,0.1966023 -0.0214,0.0563149 -0.0269,0.11739939 -0.0404,0.17609909 0.24823,0.52847802 0.88866,0.32859245 1.31423,0.24152155 0.66855,-0.13678176 0.26692,-0.0723688 0.92818,-0.15870525 -0.0955,0.0440033 -0.2162,0.0537587 -0.28639,0.13200997 -0.16815,0.18745424 -0.25277,0.43705015 -0.40439,0.63810335 -0.23761,0.3150814 -0.49982,0.6110773 -0.76086,0.907039 -0.6433,0.7293485 -1.35248,1.423587 -1.95897,2.1855891 -0.27758,0.3487542 -0.51797,0.7255554 -0.77695,1.0883331 0,0 0.0181,0.010956 0.0181,0.010956 v 0 c 0.34297,-0.3117359 0.69555,-0.6132141 1.02891,-0.9352074 0.39286,-0.3794552 1.66912,-1.7105991 2.0489,-2.1332123 0.0184,-0.020478 1.1662,-1.2845584 1.18623,-1.57113353 0.0138,-0.19774096 -0.2228,-0.32791364 -0.33421,-0.49187044 -0.45885,0.0596338 -0.9124,0.17110265 -1.3721,0.21887572 -0.11088,0.0115226 -0.24151,-0.0507293 -0.33424,0.0111334 -0.0491,0.032728 0.0694,0.0959874 0.11088,0.13786386 0.0308,0.0310751 -0.0523,-0.0701487 -0.0785,-0.10522297 0.0104,-0.0565312 0.0113,-0.11563943 0.0311,-0.16959367 0.002,-0.004296 0.20824,-0.3939946 0.20752,-0.39616112 -0.0174,-0.05242021 -0.25082,-0.41210963 -0.40584,-0.39617563 -0.10398,0.0106868 -0.20147,0.0558038 -0.3022,0.0837058 -0.61235,0.2559934 -1.20916,0.54573597 -1.82482,0.79402575 -0.17521,0.0706635 -0.35038,0.1425266 -0.53056,0.19936023 -0.12875,0.0406111 -0.28158,0.0181385 -0.39433,0.0923802 -0.0392,0.0257757 0.0423,0.083656 0.0635,0.12548403 -0.0369,-0.0461889 -0.0909,-0.0828725 -0.11064,-0.13856672 -0.16904,-0.47571836 0.38297,-1.29270515 0.66677,-1.62180107 0.23892,-0.20195365 0.3813,-0.35271334 0.66475,-0.48352364 0.08,-0.036925 0.205,0.00196 0.25471,-0.070798 0.0326,-0.047639 -0.0699,-0.1427284 -0.12344,-0.1213267 -0.12139,0.048487 0.33185,0.398928 -0.0523,0.3886336 -0.54782,0.81342864 -1.26603,1.49947147 -2.13775,1.95990588 -0.64719,0.23257712 -0.25395,0.14420372 -0.88248,0.18147032 -0.0108,6.402e-4 -0.024,0.020275 -0.0303,0.011512 -0.41256,-0.56976785 -0.27088,-0.89197388 -0.11506,-1.54792855 0.412,-1.21425375 0.90785,-2.41577965 1.67015,-3.45749345 -0.10023,-0.078504 -0.17825,-0.2006187 -0.30069,-0.2355122 -0.0464,-0.013229 -0.036,0.089587 -0.0536,0.1345544 -0.16195,0.4147202 -0.33445,0.8255814 -0.54822,1.2169746 -0.65033,1.1595881 -1.38285,2.27352737 -2.25903,3.27704437 -0.58484,0.64675673 -1.27921,1.43632123 -2.06295,1.84761793 -0.0851,0.044642 -0.17919,0.069345 -0.26878,0.1040171 0.0549,0.05903 0.085,0.1649722 0.16471,0.1770899 0.0536,0.00815 -0.0473,-0.1043702 -0.0391,-0.1579873 0.0153,-0.099328 0.062,-0.1919636 0.10681,-0.2819396 0.19269,-0.3872659 0.47295,-0.7289378 0.77509,-1.0344003 0.27531,-0.234674 0.34321,-0.31774504 0.65061,-0.48913883 0.0828,-0.046178 0.16979,-0.085883 0.25955,-0.11643855 0.051,-0.0173699 0.17652,0.024947 0.15958,-0.0262271 -0.0328,-0.0990585 -0.1575,-0.13692006 -0.23624,-0.20538008 -8e-4,0.003699 -10e-4,0.007399 -0.002,0.0110985 -0.54188,0.14494053 -1.09409,0.25426155 -1.62303,0.44592899 -0.8756,0.32037087 -1.71767,0.70183567 -2.40925,1.34463117 0.0553,0.1020565 0.0851,0.2227918 0.16583,0.3061694 0.022,0.022681 0.0392,-0.049522 0.0586,-0.074414 0.0402,-0.051548 0.0819,-0.1019706 0.12032,-0.154904 0.2029,-0.2798587 0.38,-0.5775541 0.556,-0.8746175 0.20161,-0.38018443 0.40659,-0.75134467 0.49372,-1.17784903 0.0105,-0.05128199 0.074,-0.44896912 0.009,-0.53624071 -0.099,-0.13200986 -0.2526,-0.21243679 -0.37889,-0.31865517 -0.0386,-0.007531 -0.0773,-0.030577 -0.11574,-0.022593 -0.12347,0.0256117 -0.29669,0.19263008 -0.36994,0.25883903 -0.35345,0.31951331 -0.68126,0.66705644 -1.00949,1.01179753 -0.61023,0.67701055 -1.21358,1.36505075 -1.73984,2.11042375 0.10116,0.083975 0.19504,0.1775998 0.30349,0.2519252 0.005,0.00322 0.0315,-0.034717 0.0682,-0.094151 0.0818,-0.1324134 0.15365,-0.2706615 0.22024,-0.4112635 0.26298,-0.5959059 0.44025,-1.2228562 0.50969,-1.87230615 0.0136,-0.18924746 0.0883,-0.82450628 -0.0456,-0.99230859 -0.10523,-0.13180362 -0.25627,-0.22079104 -0.39722,-0.31341113 -0.11078,-0.0727899 -0.17751,-0.0169259 -0.28604,0.0212976 -0.59135,0.45641243 -0.9887,1.1094346 -1.45306,1.68408432 -0.2666,0.32997045 -0.52948,0.66783035 -0.8811,0.91426475 -0.0933,0.065409 -0.23683,0.071238 -0.29819,0.1672768 -0.0389,0.060882 0.10208,0.1517373 0.0579,0.2088749 -0.0355,0.045822 -0.0952,-0.066147 -0.14272,-0.09922 -0.0449,-0.6153284 0.13754,-1.21617512 0.27167,-1.8116698 0.01,-0.0441165 0.0824,-0.36976902 0.0769,-0.37893049 -0.24241,-0.40546788 -0.24394,-0.39596909 -0.34907,-0.2358809 -0.1985,0.28479256 -0.42597,0.54875081 -0.65543,0.80863106 -0.50092,0.52133352 -1.03855,1.02892903 -1.72345,1.29544313 -0.26487,0.074622 -0.29972,0.013452 -0.0643,0.2363819 0.0279,0.026428 -0.0679,-0.054306 -0.0685,-0.09274 -0.001,-0.073989 0.0313,-0.1460979 0.0634,-0.2127385 0.1022,-0.2117081 0.29705,-0.4383502 0.43624,-0.6174238 0.34504,-0.3842287 0.68976,-0.74289925 1.12825,-1.024104 0.12232,-0.07844509 0.25052,-0.14850431 0.38298,-0.20825959 0.0959,-0.043269 0.25421,-0.00467 0.29953,-0.0996355 0.0355,-0.0744238 -0.10889,-0.12386927 -0.16333,-0.1858039 0.0217,9.4191e-4 0.0709,-0.0180491 0.065,0.002823 -0.009,0.0311422 -0.0521,0.0388692 -0.081,0.0535704 -0.28491,0.14525619 -0.59785,0.24638432 -0.89062,0.37399445 -0.1686,0.07348689 -0.33615,0.14933626 -0.50423,0.22400439 -1.10711,0.52372 -2.19221,1.10856075 -3.16218,1.86270425 -0.30048,0.1986959 -0.24377,0.063939 -0.0101,0.3503673 0.009,0.011603 -0.0381,-0.00769 -0.0388,-0.022644 -0.002,-0.036866 0.0183,-0.071805 0.0325,-0.1058428 0.0519,-0.1237338 0.12891,-0.2360287 0.17317,-0.3633748 0.19619,-0.5134475 0.24913,-0.98997955 0.19528,-1.53895941 -0.0104,-0.1895571 -0.019,-0.3988566962 -0.0402,-0.58800286 -0.0418,-0.3748487 -0.12579,-0.54644749 -0.56548,-0.65033474 -0.42991,0.0701123 -0.7001,0.48534724 -0.96068,0.79514051 -0.4972,0.64726125 -0.97688,1.3138323 -1.37044,2.029954 -0.0184,0.035884 -0.32508,0.6574417 -0.31989,0.6650453 0.0746,0.1092375 0.21232,0.1583876 0.32506,0.227556 0.0185,0.011353 0.0141,-0.086484 0.0305,-0.057578 0.0994,-0.1956714 0.17029,-0.4058455 0.22755,-0.6171947 0.10877,-0.4464485 0.20616,-0.8980204 0.20272,-1.36033064 -2.7e-4,-0.11425888 0.0236,-0.73817646 -0.0477,-0.81711142 -0.23223,-0.25701379 -0.21988,-0.24340071 -0.41106,-0.27062983 -0.15157,0.0777217 -0.24554,0.19947079 -0.3582,0.32674971 -0.22923,0.25895862 -0.45205,0.52354141 -0.65942,0.80052956 -0.58407,0.73470422 -1.19745,1.46531812 -2.07254,1.86240172 -0.11994,0.034383 -0.25667,0.032955 -0.35983,0.1031491 -0.038,0.025842 0.0518,0.140597 0.006,0.1376712 -0.0913,-0.00583 -0.17062,-0.081172 -0.2287,-0.1518899 -0.27561,-0.3355344 -0.11995,-0.7921116 0.008,-1.1419983 0.25523,-0.5620747 0.51508,-1.04987291 0.88506,-1.54760308 0.10274,-0.13821036 0.21242,-0.27119508 0.32288,-0.40332178 0.0827,-0.0988739 0.22813,-0.16370999 0.25627,-0.28947143 0.0261,-0.11647112 -0.0771,-0.22589763 -0.1157,-0.33884646 -0.46435,0.15606087 -0.94968,0.20429662 -1.43764,0.15929987 -0.0522,-4.445e-4 -0.21716,-0.0235281 -0.27627,0.035544 -0.033,0.0329655 0.0194,0.18977554 0.0195,0.19358499 0.009,0.20829685 -0.0376,0.25649062 -0.11573,0.46585975 -0.0778,0.11589365 -0.1464,0.23850998 -0.23338,0.34768094 -0.55899,0.7016226 -1.32674,1.3258837 -2.13406,1.7163001 -0.202825,0.098085 -0.421583,0.1590596 -0.632376,0.2385895 -0.181613,0.016112 -0.3629,0.036427 -0.544836,0.048336 -0.02442,0.0016 -0.06137,0.013638 -0.073,-0.0079 -0.06573,-0.1217045 -0.133858,-0.2518658 -0.141864,-0.3899526 -0.044,-0.7589696 0.493821,-1.44085085 0.842415,-2.05429448 0.334225,-0.45939073 0.606641,-0.89462882 1.035341,-1.27171022 0.0948,-0.083422 0.26921,-0.077557 0.32833,-0.1891803 0.0349,-0.065873 -0.0616,-0.2015159 -0.13291,-0.1798367 -0.19553,0.059437 0.51288,0.7114944 -0.12672,0.5998434 -0.11356,0.1669552 -0.21606,0.34199601 -0.34068,0.50086574 -0.927061,1.18183465 -2.166116,2.02547706 -3.537804,2.61362886 -1.201076,0.477838 -2.489179,1.0080901 -3.808328,0.8903216 z"
         inkscape:label="3"
         transform="translate(16.059791,-22.092714)" />
    </g>
  </g>
  <metadata
     id="metadata1">
    <rdf:RDF>
      <cc:Work
         rdf:about="">
        <dc:creator>
          <cc:Agent>
            <dc:title>Alan Otoniel García Hernández</dc:title>
          </cc:Agent>
        </dc:creator>
        <dc:title>Alan Otoniel García Hernández Personal Projects Logo</dc:title>
        <dc:date>18/04/2025</dc:date>
      </cc:Work>
    </rdf:RDF>
  </metadata>
</svg>
